<svg xmlns="http://www.w3.org/2000/svg" viewBox="0 0 450 96" role="img" aria-labelledby="logo-title"><title id="logo-title">PrepaexamCivique</title><path fill="#f7f6f7" fill-rule="evenodd" d="M23 70 L23 71 L33 79 L47 88 L52 88 L59 84 L75 71 L75 70 L67 74 L53 84 L48 85 L32 74ZM22 14 L37 14 L49 10 L51 10 L57 13 L61 13 L62 14 L76 14 L70 12 L67 12 L66 11 L63 11 L62 10 L59 10 L52 7 L48 7 L40 10 L32 11 L31 12 L23 13Z"/><path fill="#7f729a" fill-rule="evenodd" d="M305 44 L305 60 L304 61 L301 61 L300 60 L300 46 L300 61 L305 61ZM132 39 L135 39 L136 40 L136 43 L136 40 L135 39 L132 39 L131 40 L131 61 L136 61 L136 49 L136 60 L135 61 L132 61 L131 60 L131 40ZM108 29 L108 61 L113 61 L109 61 L108 60 L108 30 L110 29Z"/><path fill="#ed0522" fill-rule="evenodd" d="M402 40 L402 58 L405 61 L410 61 L414 58 L416 61 L419 61 L419 40 L415 40 L415 54 L411 58 L409 58 L406 55 L406 40ZM375 40 L370 40 L370 60 L371 61 L372 60 L375 60 L375 57 L374 56 L374 53 L375 52ZM346 40 L348 43 L348 45 L350 48 L354 60 L355 61 L356 60 L359 61 L367 40 L363 40 L362 41 L359 52 L357 55 L355 52 L352 41 L351 40ZM339 40 L339 60 L343 61 L343 40ZM428 40 L423 46 L423 54 L424 57 L427 60 L430 61 L437 61 L441 59 L441 56 L437 58 L432 58 L430 57 L427 53 L428 51 L441 51 L442 50 L442 47 L440 42 L435 39ZM427 46 L431 42 L434 42 L437 44 L438 47 L437 48 L428 48ZM382 41 L379 45 L379 49 L378 50 L379 56 L380 58 L384 61 L389 61 L392 59 L393 60 L393 71 L397 71 L397 40 L394 40 L393 41 L389 39ZM388 42 L390 42 L393 45 L393 55 L390 58 L387 58 L383 54 L383 47 L384 45ZM371 30 L370 33 L372 35 L374 35 L375 34 L375 31 L374 30ZM340 30 L338 33 L340 35 L342 35 L344 32 L343 30ZM322 29 L319 30 L313 35 L310 43 L310 48 L312 54 L317 59 L322 61 L330 61 L335 59 L335 56 L332 56 L331 57 L324 57 L321 56 L316 50 L315 43 L317 38 L321 34 L326 32 L329 32 L335 34 L335 30 L332 29ZM86 22 L81 27 L71 41 L52 64 L52 75 L65 65 L73 61 L84 58 L85 23ZM91 20 L88 20 L88 61 L87 62 L84 62 L75 65 L70 68 L68 68 L58 75 L63 72 L65 72 L68 70 L77 67 L86 66 L92 64 L91 63 L91 39 L92 38 L91 36 L91 31 L92 30 L91 29ZM88 15 L74 17 L65 20 L52 28 L52 46 L66 33Z"/><path fill="#042e83" fill-rule="evenodd" d="M231 40 L238 50 L231 60 L235 60 L240 53 L245 60 L249 60 L243 51 L243 49 L250 40 L245 40 L241 47 L239 46 L236 40ZM274 40 L274 60 L278 60 L278 47 L279 45 L283 42 L287 44 L287 60 L291 60 L291 47 L293 44 L296 42 L299 43 L301 46 L301 60 L304 60 L304 42 L302 40 L297 39 L292 43 L287 39 L284 39 L279 43 L278 40ZM254 42 L254 45 L258 42 L262 42 L265 45 L265 47 L262 49 L258 49 L254 51 L252 54 L253 59 L256 61 L260 61 L264 58 L265 58 L266 60 L269 60 L269 45 L268 42 L266 40 L263 39 L260 39ZM264 50 L265 51 L265 55 L262 58 L258 58 L256 56 L256 54 L259 51ZM219 39 L214 41 L212 43 L210 51 L212 57 L215 60 L218 61 L224 61 L228 59 L227 57 L225 58 L218 58 L214 53 L216 50 L229 50 L229 47 L227 42 L222 39ZM214 47 L218 42 L222 42 L225 45 L225 48 L224 49 L222 48 L217 48 L216 49ZM191 42 L191 45 L193 43 L199 42 L202 44 L202 47 L200 49 L195 49 L191 51 L189 56 L190 59 L193 61 L197 61 L201 58 L202 58 L203 60 L206 60 L206 44 L203 40 L200 39 L196 39ZM201 50 L202 51 L202 55 L199 58 L195 58 L193 56 L193 54 L196 51ZM182 40 L177 39 L173 41 L172 43 L170 42 L170 40 L167 40 L167 71 L171 71 L171 60 L172 59 L175 61 L179 61 L183 59 L186 53 L186 46 L185 43ZM175 42 L178 42 L182 46 L182 53 L178 58 L174 58 L171 55 L171 46ZM153 39 L150 40 L146 44 L145 46 L145 55 L148 59 L152 61 L158 61 L162 59 L162 56 L159 58 L153 58 L150 56 L149 51 L150 50 L163 50 L163 46 L160 41ZM149 45 L152 42 L156 42 L159 45 L159 47 L158 48 L151 48 L150 49 L149 48ZM142 39 L139 40 L136 44 L135 43 L135 40 L132 40 L132 60 L135 60 L135 49 L136 46 L138 44 L143 43 L143 40ZM126 31 L120 29 L111 29 L109 30 L109 60 L113 60 L113 50 L114 49 L120 49 L123 48 L128 44 L129 36 L128 33ZM114 32 L122 33 L125 37 L124 42 L119 46 L114 46 L113 45 L113 33ZM7 20 L7 64 L8 65 L13 65 L14 66 L18 66 L22 68 L25 68 L39 74 L25 66 L10 61 L10 20ZM14 16 L14 50 L15 51 L15 59 L18 59 L33 65 L48 76 L48 67 L24 43 L26 40 L29 38 L31 38 L45 47 L48 50 L48 27 L42 23 L30 18 L21 17 L20 16Z"/></svg>